<svg xmlns="http://www.w3.org/2000/svg" width="1264" height="162" viewBox="0 0 1264 162" fill="none">
<defs>
  <marker
    id="triangle"
    viewBox="0 0 10 10"
    refX="1"
    refY="5"
    markerUnits="strokeWidth"
    markerWidth="4"
    markerHeight="4"
    orient="auto">
    <path d="M 0 0 L 10 5 L 0 10 z" fill="#2F353D" />
  </marker>
</defs>
<path d="M 72 138 v 22 h 140 v -8" stroke-width="4" stroke="#2F353D" marker-end="url(#triangle)"/>
<path d="M 212 24 v -22 h 280 v 8" stroke-width="4" stroke="#2F353D" marker-end="url(#triangle)"/>
<path d="M 72 138 v 22 h 420 v -8" stroke-width="4" stroke="#2F353D" marker-end="url(#triangle)" transform="translate(420,0)"/>
<g>
<rect x="2" y="26" width="140" height="110" stroke="#3D444D" stroke-width="4" fill="#694040"/>
<text x="72" y="82.5" text-anchor="middle" dominant-baseline="central" font-size="72" font-family="Courier New, monospace" font-weight="bold" fill="#F0F6FC">V</text>
</g>
<g transform="translate(140,0)">
<rect x="2" y="26" width="140" height="110" stroke="#3D444D" stroke-width="4" fill="#694040"/>
<text x="72" y="82.5" text-anchor="middle" dominant-baseline="central" font-size="72" font-family="Courier New, monospace" font-weight="bold" fill="#F0F6FC">E</text>
</g>
<g transform="translate(280,0)">
<rect x="2" y="26" width="140" height="110" stroke="#3D444D" stroke-width="4" fill="#475269"/>
<text x="72" y="82.5" text-anchor="middle" dominant-baseline="central" font-size="72" font-family="Courier New, monospace" font-weight="bold" fill="#F0F6FC">R</text>
</g>
<g transform="translate(420,0)">
<rect x="2" y="26" width="140" height="110" stroke="#3D444D" stroke-width="4" fill="#694040"/>
<text x="72" y="82.5" text-anchor="middle" dominant-baseline="central" font-size="72" font-family="Courier New, monospace" font-weight="bold" fill="#F0F6FC">S</text>
</g>
<g transform="translate(560,0)">
<rect x="2" y="26" width="140" height="110" stroke="#3D444D" stroke-width="4" fill="#475269"/>
<text x="72" y="82.5" text-anchor="middle" dominant-baseline="central" font-size="72" font-family="Courier New, monospace" font-weight="bold" fill="#F0F6FC">T</text>
</g>
<g transform="translate(700,0)">
<rect x="2" y="26" width="140" height="110" stroke="#3D444D" stroke-width="4" fill="#475269"/>
<text x="72" y="82.5" text-anchor="middle" dominant-baseline="central" font-size="72" font-family="Courier New, monospace" font-weight="bold" fill="#F0F6FC">A</text>
</g>
<g transform="translate(840,0)">
<rect x="2" y="26" width="140" height="110" stroke="#3D444D" stroke-width="4" fill="#694040"/>
<text x="72" y="82.5" text-anchor="middle" dominant-baseline="central" font-size="72" font-family="Courier New, monospace" font-weight="bold" fill="#F0F6FC">B</text>
</g>
<g transform="translate(980,0)">
<rect x="2" y="26" width="140" height="110" stroke="#3D444D" stroke-width="4" fill="#475269"/>
<text x="72" y="82.5" text-anchor="middle" dominant-baseline="central" font-size="72" font-family="Courier New, monospace" font-weight="bold" fill="#F0F6FC">L</text>
</g>
<g transform="translate(1120,0)">
<rect x="2" y="26" width="140" height="110" stroke="#3D444D" stroke-width="4" fill="#475269"/>
<text x="72" y="82.5" text-anchor="middle" dominant-baseline="central" font-size="72" font-family="Courier New, monospace" font-weight="bold" fill="#F0F6FC">E</text>
</g>
</svg>